<svg width="680" height="490" viewBox="0 0 680 490" role="img" xmlns="http://www.w3.org/2000/svg"><title>Grill master mascot</title><desc>A cartoon chef with sunglasses grilling question marks over open flames, holding tongs and a notepad. Labeled grill.</desc>
<style>
.lbl{font-family:'JetBrains Mono','Fira Code',Consolas,Menlo,monospace;font-size:28px;font-weight:500;fill:#5d4037}
@media (prefers-color-scheme: dark){.lbl{fill:#ffcc80}.pad{fill:#efe9db}}
</style>

<circle cx="340" cy="230" r="205" fill="#fbe3c4"/>
<circle cx="120" cy="90" r="30" fill="#ffd166" opacity="0.55"/>
<circle cx="588" cy="118" r="18" fill="#ffd166" opacity="0.4"/>
<circle cx="560" cy="60" r="8" fill="#ffd166" opacity="0.4"/>
<ellipse cx="340" cy="428" rx="280" ry="18" fill="#e0cdb2"/>

<g opacity="0.75" fill="none" stroke="#c9bba5" stroke-width="4" stroke-linecap="round">
<path d="M400 130 q-12 -18 4 -30 q14 -10 6 -26"/>
<path d="M470 118 q10 -16 -4 -28 q-12 -10 -4 -24"/>
</g>

<g>
<line x1="392" y1="352" x2="368" y2="418" stroke="#4e342e" stroke-width="9" stroke-linecap="round"/>
<line x1="488" y1="352" x2="512" y2="418" stroke="#4e342e" stroke-width="9" stroke-linecap="round"/>
<line x1="440" y1="358" x2="440" y2="414" stroke="#4e342e" stroke-width="9" stroke-linecap="round"/>
<circle cx="368" cy="420" r="11" fill="#212121"/>
<circle cx="368" cy="420" r="4" fill="#757575"/>
<circle cx="512" cy="420" r="11" fill="#212121"/>
<circle cx="512" cy="420" r="4" fill="#757575"/>
<line x1="378" y1="392" x2="502" y2="392" stroke="#4e342e" stroke-width="5"/>

<path d="M342 292 Q348 356 440 356 Q532 356 538 292 Z" fill="#8e2f26"/>
<path d="M342 292 Q346 340 400 350 Q360 336 352 292 Z" fill="#a8443a"/>
<path d="M538 292 Q534 344 480 352 Q522 336 528 292 Z" fill="#6d221b"/>
<ellipse cx="440" cy="292" rx="100" ry="19" fill="#5c1a14"/>
<ellipse cx="440" cy="290" rx="88" ry="14" fill="#31201c"/>
<g fill="#ff7043">
<circle cx="408" cy="290" r="7"/><circle cx="432" cy="293" r="8"/><circle cx="458" cy="290" r="7"/><circle cx="478" cy="288" r="5"/><circle cx="394" cy="286" r="5"/>
</g>
<g fill="#ffd54f" opacity="0.9">
<circle cx="420" cy="288" r="3"/><circle cx="446" cy="290" r="3"/><circle cx="468" cy="287" r="2.5"/>
</g>
<ellipse cx="440" cy="272" rx="94" ry="13" fill="none" stroke="#3e2723" stroke-width="4"/>
<g stroke="#3e2723" stroke-width="2.5">
<line x1="360" y1="276" x2="366" y2="266"/><line x1="384" y1="281" x2="388" y2="263"/><line x1="412" y1="284" x2="414" y2="261"/><line x1="440" y1="285" x2="440" y2="259"/><line x1="468" y1="284" x2="466" y2="261"/><line x1="496" y1="281" x2="492" y2="263"/><line x1="520" y1="276" x2="514" y2="266"/>
</g>
<rect x="530" y="300" width="58" height="10" rx="5" fill="#6d4c41"/>
<rect x="536" y="310" width="46" height="6" rx="3" fill="#4e342e"/>
</g>

<g>
<path d="M388 262 Q378 236 392 218 Q382 206 392 190" fill="none" stroke="#ff7043" stroke-width="7" stroke-linecap="round"/>
<path d="M388 258 Q382 240 392 226" fill="none" stroke="#ffb300" stroke-width="4" stroke-linecap="round"/>
<path d="M440 258 Q452 228 438 208 Q450 194 440 176" fill="none" stroke="#fb8c00" stroke-width="8" stroke-linecap="round"/>
<path d="M440 254 Q448 234 438 216" fill="none" stroke="#ffd54f" stroke-width="4" stroke-linecap="round"/>
<path d="M492 262 Q502 238 490 220 Q500 208 492 192" fill="none" stroke="#ff7043" stroke-width="7" stroke-linecap="round"/>
<path d="M492 258 Q498 242 488 228" fill="none" stroke="#ffb300" stroke-width="4" stroke-linecap="round"/>
</g>

<g font-family="Georgia, serif" font-weight="700" text-anchor="middle">
<text x="394" y="176" font-size="34" fill="#e65100">?</text>
<text x="446" y="146" font-size="46" fill="#bf360c">?</text>
<text x="498" y="178" font-size="32" fill="#e65100">?</text>
<text x="540" y="120" font-size="24" fill="#f57c00" opacity="0.8">?</text>
</g>

<g>
<ellipse cx="185" cy="424" rx="66" ry="12" fill="#c9b394"/>
<path d="M156 396 L150 418 Q149 424 158 424 L182 424 L182 396 Z" fill="#37474f"/>
<path d="M214 396 L220 418 Q221 424 212 424 L188 424 L188 396 Z" fill="#37474f"/>
<path d="M148 416 Q136 424 148 428 L182 428 L182 416 Z" fill="#212121"/>
<path d="M222 416 Q234 424 222 428 L188 428 L188 416 Z" fill="#212121"/>
<rect x="152" y="356" width="66" height="44" fill="#546e7a"/>
<line x1="185" y1="356" x2="185" y2="400" stroke="#455a64" stroke-width="4"/>

<path d="M138 256 Q132 250 128 262 L122 330 Q120 344 134 346 L150 348 L156 262 Z" fill="#fdfdfd"/>
<path d="M232 256 Q238 250 242 262 L248 330 Q250 344 236 346 L220 348 L214 262 Z" fill="#fdfdfd"/>
<rect x="134" y="248" width="102" height="116" rx="18" fill="#ffffff"/>
<path d="M214 248 Q236 250 236 268 L236 348 Q236 364 218 364 L206 364 L206 250 Z" fill="#ececec"/>
<circle cx="185" cy="272" r="4" fill="#bdbdbd"/>
<circle cx="185" cy="292" r="4" fill="#bdbdbd"/>

<path d="M146 300 L142 356 Q142 368 154 368 L216 368 Q228 368 228 356 L224 300 Z" fill="#c62828"/>
<path d="M224 300 L228 356 Q228 368 216 368 L204 368 Q216 366 215 352 L212 300 Z" fill="#9c1f1f"/>
<path d="M146 300 L224 300 L222 312 L148 312 Z" fill="#e53935"/>
<line x1="150" y1="304" x2="138" y2="262" stroke="#c62828" stroke-width="5"/>
<line x1="220" y1="304" x2="232" y2="262" stroke="#c62828" stroke-width="5"/>
<path d="M162 246 L185 262 L208 246 L204 258 L185 268 L166 258 Z" fill="#fdd835"/>

<circle cx="185" cy="192" r="54" fill="#f2b98c"/>
<path d="M139 210 Q152 244 185 246 Q218 244 231 210 Q222 240 185 242 Q148 240 139 210" fill="#dfa172"/>
<ellipse cx="131" cy="196" rx="9" ry="13" fill="#f2b98c"/>
<ellipse cx="239" cy="196" rx="9" ry="13" fill="#f2b98c"/>
<ellipse cx="131" cy="196" rx="4" ry="6" fill="#dfa172"/>
<ellipse cx="239" cy="196" rx="4" ry="6" fill="#dfa172"/>

<path d="M137 168 Q137 118 185 116 Q233 118 233 168 L233 156 Q235 172 228 174 L142 174 Q135 172 137 156 Z" fill="#fcfcfc"/>
<ellipse cx="158" cy="118" rx="22" ry="18" fill="#ffffff"/>
<ellipse cx="188" cy="110" rx="26" ry="20" fill="#ffffff"/>
<ellipse cx="215" cy="120" rx="20" ry="16" fill="#ffffff"/>
<ellipse cx="172" cy="106" rx="14" ry="11" fill="#ffffff"/>
<path d="M150 128 Q150 148 148 162 M170 118 Q170 144 169 164 M200 118 Q200 144 201 164 M222 130 Q222 148 224 162" fill="none" stroke="#e6e6e6" stroke-width="3"/>
<rect x="135" y="164" width="100" height="13" rx="6" fill="#e0e0e0"/>

<g>
<path d="M143 190 Q143 178 155 178 L176 178 Q186 178 186 188 Q186 202 172 202 L158 202 Q143 202 143 190" fill="#1c1c1c"/>
<path d="M227 190 Q227 178 215 178 L194 178 Q184 178 184 188 Q184 202 198 202 L212 202 Q227 202 227 190" fill="#1c1c1c"/>
<line x1="184" y1="184" x2="186" y2="184" stroke="#1c1c1c" stroke-width="6"/>
<line x1="143" y1="186" x2="133" y2="190" stroke="#1c1c1c" stroke-width="4"/>
<line x1="227" y1="186" x2="237" y2="190" stroke="#1c1c1c" stroke-width="4"/>
<path d="M150 184 Q156 181 162 183" stroke="#8d8d8d" stroke-width="3" fill="none" stroke-linecap="round"/>
<path d="M194 184 Q200 181 206 183" stroke="#8d8d8d" stroke-width="3" fill="none" stroke-linecap="round"/>
</g>

<ellipse cx="185" cy="210" rx="9" ry="8" fill="#e09a6a"/>
<path d="M185 214 Q166 208 154 216 Q146 221 152 227 Q162 233 178 226 Q184 223 185 218 Q186 223 192 226 Q208 233 218 227 Q224 221 216 216 Q204 208 185 214" fill="#6d4c41"/>
<path d="M160 218 Q170 222 180 220 M210 218 Q200 222 190 220" stroke="#4e342e" stroke-width="2" fill="none"/>
<path d="M166 232 Q185 246 204 232 Q198 244 185 244 Q172 244 166 232" fill="#7a3c2e"/>
<path d="M176 240 Q185 244 194 240 Q189 243 185 243 Q181 243 176 240" fill="#ef9a9a"/>
<ellipse cx="146" cy="216" rx="7" ry="5" fill="#eda07b" opacity="0.7"/>
<ellipse cx="224" cy="216" rx="7" ry="5" fill="#eda07b" opacity="0.7"/>

<path d="M226 268 Q252 258 272 240" fill="none" stroke="#ffffff" stroke-width="18" stroke-linecap="round"/>
<path d="M226 268 Q252 258 272 240" fill="none" stroke="#ececec" stroke-width="18" stroke-linecap="round" stroke-dasharray="0 26 40"/>
<circle cx="278" cy="234" r="13" fill="#f2b98c"/>
<circle cx="284" cy="228" r="6" fill="#e09a6a" opacity="0.6"/>
<g stroke="#607d8b" stroke-width="6" stroke-linecap="round" fill="none">
<path d="M286 228 Q310 214 330 216"/>
<path d="M288 240 Q314 236 334 226"/>
<path d="M330 216 L340 210 M334 226 L344 222"/>
</g>
<text x="356" y="228" font-family="Georgia, serif" font-size="32" font-weight="700" fill="#bf360c">?</text>

<path d="M144 268 Q118 278 106 300" fill="none" stroke="#ffffff" stroke-width="18" stroke-linecap="round"/>
<circle cx="102" cy="308" r="13" fill="#f2b98c"/>
<g transform="rotate(-10 84 342)">
<rect x="52" y="304" width="66" height="84" rx="8" fill="#8d6e63"/>
<rect x="58" y="314" width="54" height="66" rx="5" fill="#fdfaf2" class="pad"/>
<rect x="70" y="306" width="30" height="10" rx="5" fill="#b0bec5"/>
<circle cx="68" cy="330" r="4" fill="none" stroke="#43a047" stroke-width="2.5"/>
<path d="M65 330 l2 2 l4 -5" stroke="#43a047" stroke-width="2" fill="none"/>
<line x1="78" y1="330" x2="106" y2="330" stroke="#9e9e9e" stroke-width="3" stroke-linecap="round"/>
<circle cx="68" cy="348" r="4" fill="none" stroke="#43a047" stroke-width="2.5"/>
<path d="M65 348 l2 2 l4 -5" stroke="#43a047" stroke-width="2" fill="none"/>
<line x1="78" y1="348" x2="102" y2="348" stroke="#9e9e9e" stroke-width="3" stroke-linecap="round"/>
<circle cx="68" cy="366" r="4" fill="none" stroke="#e53935" stroke-width="2.5"/>
<line x1="78" y1="366" x2="96" y2="366" stroke="#bdbdbd" stroke-width="3" stroke-linecap="round"/>
</g>
</g>

<text x="340" y="474" text-anchor="middle" class="lbl">grill</text>
</svg>
